HIERARCHY
ROOT Hips
{
  OFFSET 1.73907 43.2358 0.0522707
  CHANNELS 6 Xposition Yposition Zposition Zrotation Xrotation Yrotation
  JOINT Bip01_Pelvis
  {
    OFFSET 0 0 0
    CHANNELS 6 Xposition Yposition Zposition Zrotation Xrotation Yrotation
    JOINT BN_Tail_01
    {
      OFFSET -2.28979 -2.39917 0
      CHANNELS 6 Xposition Yposition Zposition Zrotation Xrotation Yrotation
      JOINT BN_Tail_02
      {
        OFFSET 9.67405 0 0
        CHANNELS 6 Xposition Yposition Zposition Zrotation Xrotation Yrotation
        JOINT BN_Tail_03
        {
          OFFSET 10.5192 0 -1.14441e-005
          CHANNELS 6 Xposition Yposition Zposition Zrotation Xrotation Yrotation
          JOINT BN_Tail_04
          {
            OFFSET 8.16754 0 0
            CHANNELS 6 Xposition Yposition Zposition Zrotation Xrotation Yrotation
            End Site
            {
              OFFSET 0 0 0
            }
          }
        }
      }
    }
    JOINT Bip01_Spine
    {
      OFFSET 2.25317 -0.00479889 0
      CHANNELS 6 Xposition Yposition Zposition Zrotation Xrotation Yrotation
      JOINT Bip01_R_Thigh
      {
        OFFSET -2.32652 -0.461891 -2.25534
        CHANNELS 6 Xposition Yposition Zposition Zrotation Xrotation Yrotation
        JOINT Bip01_R_Calf
        {
          OFFSET 9.47902 0 0
          CHANNELS 6 Xposition Yposition Zposition Zrotation Xrotation Yrotation
          JOINT Bip01_R_Foot
          {
            OFFSET 8.42616 0 0
            CHANNELS 6 Xposition Yposition Zposition Zrotation Xrotation Yrotation
            JOINT Bip01_R_Toe1
            {
              OFFSET 1.4015 3.97627 -1.33795
              CHANNELS 6 Xposition Yposition Zposition Zrotation Xrotation Yrotation
              JOINT Bip01_R_Toe11
              {
                OFFSET 2.94553 0 0
                CHANNELS 6 Xposition Yposition Zposition Zrotation Xrotation Yrotation
                JOINT Bip01_R_Toe1Nub
                {
                  OFFSET 2.52656 0 0
                  CHANNELS 6 Xposition Yposition Zposition Zrotation Xrotation Yrotation
                  End Site
                  {
                    OFFSET 0 0 0
                  }
                }
              }
            }
            JOINT Bip01_R_Toe0
            {
              OFFSET 2.09729 6.93129 0.0277901
              CHANNELS 6 Xposition Yposition Zposition Zrotation Xrotation Yrotation
              JOINT Bip01_R_Toe01
              {
                OFFSET 3.0714 0 0
                CHANNELS 6 Xposition Yposition Zposition Zrotation Xrotation Yrotation
                JOINT Bip01_R_Toe0Nub
                {
                  OFFSET 3.37999 0 0
                  CHANNELS 6 Xposition Yposition Zposition Zrotation Xrotation Yrotation
                  End Site
                  {
                    OFFSET 0 0 0
                  }
                }
              }
            }
          }
        }
      }
      JOINT Bip01_L_Thigh
      {
        OFFSET -2.07803 -0.462101 2.48614
        CHANNELS 6 Xposition Yposition Zposition Zrotation Xrotation Yrotation
        JOINT Bip01_L_Calf
        {
          OFFSET 9.47902 0 0
          CHANNELS 6 Xposition Yposition Zposition Zrotation Xrotation Yrotation
          JOINT Bip01_L_Foot
          {
            OFFSET 8.42617 0 0
            CHANNELS 6 Xposition Yposition Zposition Zrotation Xrotation Yrotation
            JOINT Bip01_L_Toe1
            {
              OFFSET 1.40151 3.97627 1.33796
              CHANNELS 6 Xposition Yposition Zposition Zrotation Xrotation Yrotation
              JOINT Bip01_L_Toe11
              {
                OFFSET 2.94554 0 0
                CHANNELS 6 Xposition Yposition Zposition Zrotation Xrotation Yrotation
                JOINT Bip01_L_Toe1Nub
                {
                  OFFSET 2.52656 0 0
                  CHANNELS 6 Xposition Yposition Zposition Zrotation Xrotation Yrotation
                  End Site
                  {
                    OFFSET 0 0 0
                  }
                }
              }
            }
            JOINT Bip01_L_Toe0
            {
              OFFSET 2.0973 6.93128 -0.0277834
              CHANNELS 6 Xposition Yposition Zposition Zrotation Xrotation Yrotation
              JOINT Bip01_L_Toe01
              {
                OFFSET 3.07141 0 0
                CHANNELS 6 Xposition Yposition Zposition Zrotation Xrotation Yrotation
                JOINT Bip01_L_Toe0Nub
                {
                  OFFSET 3.37999 0 0
                  CHANNELS 6 Xposition Yposition Zposition Zrotation Xrotation Yrotation
                  End Site
                  {
                    OFFSET 0 0 0
                  }
                }
              }
            }
          }
        }
      }
      JOINT Bip01_Spine1
      {
        OFFSET 6.17162 -0.00484467 0
        CHANNELS 6 Xposition Yposition Zposition Zrotation Xrotation Yrotation
        JOINT BN_R_Clavicle_01
        {
          OFFSET 6.15897 -2.02444 -2.78435
          CHANNELS 6 Xposition Yposition Zposition Zrotation Xrotation Yrotation
          JOINT BN_R_UpperArm_01
          {
            OFFSET 3.43915 0 0
            CHANNELS 6 Xposition Yposition Zposition Zrotation Xrotation Yrotation
            JOINT BN_R__Forearm_01
            {
              OFFSET 10.2529 0 0
              CHANNELS 6 Xposition Yposition Zposition Zrotation Xrotation Yrotation
              JOINT BN_R_Hand_01
              {
                OFFSET 16.2051 0 0
                CHANNELS 6 Xposition Yposition Zposition Zrotation Xrotation Yrotation
                JOINT BN_R_Finger_07
                {
                  OFFSET 2.2539 2.19923 0.192043
                  CHANNELS 6 Xposition Yposition Zposition Zrotation Xrotation Yrotation
                  End Site
                  {
                    OFFSET 0 0 0
                  }
                }
                JOINT BN_R_Finger_01
                {
                  OFFSET 2.17806 -1.99631 -0.219296
                  CHANNELS 6 Xposition Yposition Zposition Zrotation Xrotation Yrotation
                  End Site
                  {
                    OFFSET 0 0 0
                  }
                }
                JOINT BN_R_Finger_05
                {
                  OFFSET 3.30715 1.42802 0.17391
                  CHANNELS 6 Xposition Yposition Zposition Zrotation Xrotation Yrotation
                  End Site
                  {
                    OFFSET 0 0 0
                  }
                }
                JOINT BN_R_Finger_03
                {
                  OFFSET 3.93641 -0.769831 0.580946
                  CHANNELS 6 Xposition Yposition Zposition Zrotation Xrotation Yrotation
                  End Site
                  {
                    OFFSET 0 0 0
                  }
                }
              }
            }
          }
        }
        JOINT BN_L_Clavicle_01
        {
          OFFSET 6.15897 -2.02445 2.78458
          CHANNELS 6 Xposition Yposition Zposition Zrotation Xrotation Yrotation
          JOINT BN_L_UpperArm_01
          {
            OFFSET 3.43915 0 0
            CHANNELS 6 Xposition Yposition Zposition Zrotation Xrotation Yrotation
            JOINT BN_L__Forearm_01
            {
              OFFSET 10.2529 0 0
              CHANNELS 6 Xposition Yposition Zposition Zrotation Xrotation Yrotation
              JOINT BN_L_Hand_01
              {
                OFFSET 16.2051 0 0
                CHANNELS 6 Xposition Yposition Zposition Zrotation Xrotation Yrotation
                JOINT BN_L_Finger_05
                {
                  OFFSET 3.30715 -1.42803 0.173891
                  CHANNELS 6 Xposition Yposition Zposition Zrotation Xrotation Yrotation
                  End Site
                  {
                    OFFSET 0 0 0
                  }
                }
                JOINT BN_L_Finger_07
                {
                  OFFSET 2.2539 -2.19925 0.19203
                  CHANNELS 6 Xposition Yposition Zposition Zrotation Xrotation Yrotation
                  End Site
                  {
                    OFFSET 0 0 0
                  }
                }
                JOINT BN_L_Finger_01
                {
                  OFFSET 2.17804 1.99629 -0.219303
                  CHANNELS 6 Xposition Yposition Zposition Zrotation Xrotation Yrotation
                  End Site
                  {
                    OFFSET 0 0 0
                  }
                }
                JOINT BN_L_Finger_03
                {
                  OFFSET 3.9364 0.769825 0.580943
                  CHANNELS 6 Xposition Yposition Zposition Zrotation Xrotation Yrotation
                  End Site
                  {
                    OFFSET 0 0 0
                  }
                }
              }
            }
          }
        }
        JOINT Bip01_Neck
        {
          OFFSET 7.02381 -0.81237 0
          CHANNELS 6 Xposition Yposition Zposition Zrotation Xrotation Yrotation
          JOINT Bip01_Head
          {
            OFFSET 1.54249 1.14441e-005 0
            CHANNELS 6 Xposition Yposition Zposition Zrotation Xrotation Yrotation
            JOINT BN_Mouth_01
            {
              OFFSET 2.32836 0.166542 0
              CHANNELS 6 Xposition Yposition Zposition Zrotation Xrotation Yrotation
              End Site
              {
                OFFSET 0 0 0
              }
            }
            JOINT BN_R_Ear_01
            {
              OFFSET 3.4208 -0.773972 -2.25959
              CHANNELS 6 Xposition Yposition Zposition Zrotation Xrotation Yrotation
              End Site
              {
                OFFSET 0 0 0
              }
            }
            JOINT BN_L_Ear_01
            {
              OFFSET 3.4208 -0.773976 2.25975
              CHANNELS 6 Xposition Yposition Zposition Zrotation Xrotation Yrotation
              End Site
              {
                OFFSET 0 0 0
              }
            }
            JOINT Bip01_HeadNub
            {
              OFFSET 6.74789 0 0
              CHANNELS 6 Xposition Yposition Zposition Zrotation Xrotation Yrotation
              End Site
              {
                OFFSET 0 0 0
              }
            }
          }
        }
      }
    }
  }
}
MOTION
Frames:	4
Frame Time:	0.0333333
3.43693 46.1799 0.094427 53.6268 -89.1131 102.247 0 0 0 -89.9965 -3.50835e-015 -90 -2.28979 -2.39919 5.55112e-017 177.324 83.8743 55.6489 9.67406 -2.38419e-007 7.6294e-006 11.4863 0.995905 -10.5293 10.5192 5.96046e-008 7.10543e-015 16.5777 -0.474267 -11.3118 8.16754 -2.86102e-006 -1.14441e-005 19.9373 1.87746 11.356 2.25379 -0.004879 -0.000416547 -4.69746 4.85993 -3.04149 -2.36821 -0.380264 -2.22721 21.2898 -16.5078 -169.883 9.47902 0 0 -35.4872 -1.5124e-006 8.58179e-007 8.42616 3.8147e-006 0 -27.114 -8.17565 -12.5263 1.4015 3.97628 -1.33794 85.5365 -41.2629 29.201 2.94553 -3.55272e-015 0 -18.3475 -6.45086e-006 1.02998e-005 2.52656 -1.90735e-006 -7.6294e-006 6.89117e-007 4.9015e-006 -7.05721e-007 2.0973 6.9313 0.0278101 65.2585 -7.80096e-006 1.59357e-005 3.07141 7.6294e-006 4.44089e-016 -65.3707 9.08698e-009 8.08196e-007 3.37999 -1.90735e-006 2.38419e-007 -6.89702e-007 -2.00488e-007 -1.33564e-007 -2.11702 0.0220184 2.49703 27.6337 8.92068 -164.594 9.47902 -3.8147e-006 9.53675e-007 -40.8908 7.87655e-006 6.84655e-006 8.42617 0 2.86102e-006 -39.4291 2.3715 4.7632 1.4015 3.97627 1.33796 71.6153 45.8602 -19.575 2.94553 3.8147e-006 3.8147e-006 -20.3981 6.77721e-007 8.92876e-007 2.52656 3.55271e-015 -3.8147e-006 -179.96 -5.93499e-005 1.66111e-005 2.0973 6.93129 -0.0277834 54.3342 3.10303e-007 -9.25423e-007 3.0714 1.14441e-005 1.77636e-015 -76.4205 1.87024e-006 1.03767e-005 3.38 1.90735e-006 0 179.96 -5.1093e-005 -3.06785e-005 6.17171 -0.00487518 -0.000144839 -8.01026 1.68411 -7.18673 6.15899 -2.02444 -2.78435 -178.019 9.66756 77.6449 3.43915 0 0 78.7843 65.3126 -62.1786 10.2529 -7.62939e-006 3.8147e-006 -63.5646 1.35903 0.854436 16.2051 1.90735e-006 3.8147e-006 28.3297 0.208275 17.6917 2.25392 2.19925 0.192032 68.5871 0.527052 12.2934 2.17805 -1.99629 -0.219303 -71.0444 -0.181688 7.61482 3.30715 1.42804 0.173901 22.0312 1.23166 14.5521 3.93641 -0.769818 0.580933 -1.22239 0.405733 39.3824 6.15898 -2.02445 2.78458 1.29165 6.64551 -102.246 3.43915 -3.8147e-006 0 -93.1716 -78.3153 -75.5175 10.2529 7.10543e-015 1.90735e-006 67.8409 -5.28637 6.96414 16.2051 -3.8147e-006 1.90735e-006 -25.4503 -4.51988 22.7683 3.30715 -1.42802 0.173889 -22.0449 -1.13374 0.552344 2.25391 -2.19925 0.19203 -68.6228 -0.533587 8.29406 2.17805 1.99629 -0.219301 71.0446 0.182695 6.61525 3.9364 0.76983 0.580938 0.555005 -2.50247 19.3748 7.02382 -0.812376 -8.88179e-016 10.998 -8.90937e-007 1.05486e-005 1.54247 3.8147e-006 4.76837e-007 -15.3807 -7.64955 7.65986 2.10596 -0.356756 0.0332333 -69.5195 -0.0116272 -179.983 3.42081 -0.773968 -2.25959 154.422 1.41796 177.05 3.42081 -0.773977 2.25975 -25.7806 1.4477 -12.7099 6.74791 -1.90735e-006 -5.96047e-008 -2.94819e-006 1.45355e-008 -2.85231e-008 
-5.26272 44.8694 -2.18925 128.455 -83.5224 155.938 0 0 0 -89.9965 -3.50835e-015 -90 -2.28979 -2.39919 -3.24185e-014 150.998 81.3201 63.0826 9.67406 -2.38419e-007 7.6294e-006 12.91 1.19119 -5.76605 10.5192 5.96046e-008 -1.42109e-014 19.4621 0.837951 -2.39065 8.16754 -2.86102e-006 -1.14441e-005 21.3128 2.05566 12.911 2.25379 -0.004879 -0.000416547 11.5395 5.67834 5.25687 -1.97668 0.218184 -2.59882 -33.077 -16.611 171.226 9.47902 -1.59872e-014 3.55271e-015 -61.2234 -1.89407e-007 -1.78658e-007 8.42616 3.8147e-006 -2.66454e-015 -26.1343 -8.44496 -11.9557 1.4015 3.97628 -1.33794 83.0935 -42.2491 27.5711 2.94553 8.88179e-015 1.06581e-014 -17.308 -5.37883e-006 1.02659e-005 2.52656 -1.90735e-006 -7.6294e-006 6.89117e-007 4.9015e-006 -7.05721e-007 2.0973 6.9313 0.0278101 63.1829 -7.84309e-006 1.58439e-005 3.07141 7.6294e-006 -5.4401e-014 -64.3314 0.00824014 -0.00395994 3.37999 -1.90735e-006 2.38419e-007 -6.89702e-007 -2.00488e-007 -1.33564e-007 -2.40964 0.687926 2.10552 -21.5761 -1.45146 -172.164 9.47902 -3.8147e-006 9.53675e-007 -55.3312 6.02543e-006 8.1333e-006 8.42617 -2.20268e-013 2.86102e-006 -54.4432 1.51635 0.760851 1.4015 3.97627 1.33796 72.3985 45.6651 -20.1347 2.94553 3.8147e-006 3.8147e-006 -19.3622 0.000161331 -0.00045312 2.52656 -2.30926e-013 -3.8147e-006 -179.96 -5.93506e-005 1.66127e-005 2.0973 6.93129 -0.0277836 52.2595 7.42131e-006 6.56395e-006 3.0714 1.14441e-005 -3.55271e-014 -75.3804 0.000205055 -4.24959e-005 3.38 1.90735e-006 -3.55271e-015 179.96 -5.10908e-005 -3.06777e-005 6.17171 -0.00487518 -0.000144839 7.53647 -4.79137 1.42835 6.15899 -2.02444 -2.78435 -178.019 9.66756 77.6449 3.43915 0 1.42109e-014 -3.85853 72.3153 -4.80131 10.2529 -7.62939e-006 3.8147e-006 -53.8588 1.42781 0.601099 16.2051 1.90735e-006 3.8147e-006 29.5807 -0.157944 18.2824 2.25392 2.19925 0.192032 76.415 1.46005 11.3047 2.17805 -1.99629 -0.219303 -71.0422 -0.184442 7.26931 3.30715 1.42804 0.173901 22.0552 1.21988 14.2084 3.93641 -0.769818 0.580933 -3.73125 2.5365 34.0154 6.15898 -2.02445 2.78458 1.29405 6.65307 -102.23 3.43915 -3.8147e-006 -1.13687e-013 -61.7579 -84.8913 -56.7367 10.2529 7.10543e-015 1.90735e-006 63.2213 -5.6783 6.39359 16.2051 -3.8147e-006 1.90735e-006 -22.2917 -7.62192 21.4317 3.30715 -1.42802 0.173889 -26.651 -1.66438 5.52418 2.25391 -2.19925 0.19203 -75.9796 0.131474 8.66075 2.17805 1.99629 -0.219301 71.0476 0.183534 -0.963175 3.9364 0.76983 0.580938 2.31619 -5.80223 20.4691 7.02382 -0.812376 -4.41595e-009 10.998 -2.6321e-006 6.80961e-007 1.54247 3.8147e-006 4.76837e-007 8.21905 6.21086 -5.75219 2.10596 -0.356756 0.0332333 -77.7575 -0.12471 -179.964 3.42081 -0.773968 -2.25959 146.524 1.02406 176.78 3.42081 -0.773978 2.25975 -33.6958 1.87138 -12.4439 6.74791 -1.90735e-006 -5.96047e-008 -2.94819e-006 1.45355e-008 -2.85231e-008 
-13.7934 43.5844 -4.42858 142.613 -77.7542 149.243 0 0 0 -89.9965 -3.50835e-015 -90 -2.28979 -2.39919 -2.02061e-013 128.463 78.8464 66.8507 9.67406 -2.38419e-007 7.6294e-006 14.2137 1.37601 -1.28885 10.5192 5.96046e-008 0 21.7489 2.12245 6.25278 8.16754 -2.86102e-006 -1.14441e-005 22.6566 2.26612 14.4314 2.25379 -0.004879 -0.000416547 27.253 8.66197 12.8986 -1.3928 0.667255 -2.88638 -82.3779 -1.03089 162.16 9.47902 0 3.55271e-015 -86.4597 2.80137e-007 2.07852e-007 8.42616 3.8147e-006 -2.22045e-015 -25.0279 -8.40905 -10.5945 1.4015 3.97628 -1.33794 78.1248 -44.007 24.1755 2.94553 4.4409e-015 0 -15.293 -3.99218e-006 1.0435e-005 2.52656 -1.90735e-006 -7.6294e-006 6.89117e-007 4.9015e-006 -7.05721e-007 2.0973 6.9313 0.02781 59.1517 -8.74347e-006 1.5543e-005 3.0714 7.6294e-006 -8.70415e-014 -62.3052 8.30695e-009 -6.79324e-008 3.37999 -1.90735e-006 2.38419e-007 -6.89702e-007 -2.00488e-007 -1.33564e-007 -2.44075 1.38251 1.68894 -71.3487 0.592494 -179.377 9.47902 -3.8147e-006 9.53675e-007 -69.4911 3.67156e-006 8.94059e-006 8.42617 -2.27374e-013 2.86102e-006 -69.2917 1.29466 -2.63002 1.4015 3.97627 1.33796 73.8917 45.2683 -21.1998 2.94553 3.8147e-006 3.8147e-006 -17.2961 0.0151075 -0.0485081 2.52656 -4.51195e-013 -3.8147e-006 -179.96 -5.93511e-005 1.6612e-005 2.0973 6.93129 -0.0277838 48.2315 -2.59328e-007 1.6588e-006 3.0714 1.14441e-005 -2.80664e-013 -73.3548 0.0244145 -0.00729 3.38 1.90735e-006 0 179.96 -5.10868e-005 -3.06785e-005 6.17171 -0.00487518 -0.000144839 23.7197 -8.61967 11.3484 6.15899 -2.02444 -2.78435 -178.019 9.66756 77.6449 3.43915 -2.84217e-014 1.42109e-014 -105.573 46.5071 56.5794 10.2529 -7.62939e-006 3.8147e-006 -35.8747 1.57611 0.138951 16.2051 1.90735e-006 3.8147e-006 30.966 -0.217988 18.6416 2.25392 2.19925 0.192031 91.495 3.26509 8.93512 2.17805 -1.99629 -0.219303 -71.0456 -0.18284 6.07288 3.30715 1.42804 0.1739 22.0786 1.20829 13.8713 3.93641 -0.769818 0.580934 -7.50355 7.39636 23.0551 6.15898 -2.02445 2.78458 1.30009 6.67724 -102.205 3.43915 -3.8147e-006 4.29879e-013 96.2756 -79.7357 75.6841 10.2529 3.55271e-015 1.90735e-006 53.5352 -6.50271 5.20837 16.2051 -3.8147e-006 1.90735e-006 -16.1988 -13.618 18.4387 3.30715 -1.42802 0.173889 -35.1256 -2.64513 14.6713 2.25391 -2.19925 0.19203 -90.0347 1.76834 8.92283 2.17805 1.99629 -0.219301 71.1175 0.175132 -16.0042 3.93641 0.76983 0.580938 6.4095 -12.2806 22.2463 7.02382 -0.812376 3.15484e-009 10.998 -7.70787e-007 1.05911e-005 1.54247 3.8147e-006 4.76837e-007 32.2795 -1.38823 -19.5934 2.10596 -0.356756 0.0332333 -84.3665 -0.178221 -179.742 3.42081 -0.773968 -2.25959 140.167 0.729453 176.635 3.42081 -0.773978 2.25975 -40.0603 2.17006 -12.3046 6.74791 -1.90735e-006 -5.96047e-008 -2.94819e-006 1.45354e-008 -2.85231e-008 
-20.7131 42.6281 -6.15946 149.823 -75.0929 141.032 0 0 0 -89.9965 -3.50835e-015 -90 -2.28979 -2.39919 -4.60965e-013 107.921 76.4993 69.0418 9.67406 -2.38419e-007 7.6294e-006 15.401 1.56398 2.89822 10.5192 5.96046e-008 -5.32907e-015 23.4982 3.30732 14.5799 8.16754 -2.86102e-006 -1.14441e-005 23.5766 2.46223 15.6514 2.25379 -0.004879 -0.000416547 37.1967 11.5294 16.7465 -0.968411 0.864803 -3.00533 -111.156 9.89893 164.514 9.47902 0 3.9968e-015 -96.2217 3.59189e-007 -9.72392e-008 8.42616 3.8147e-006 -4.44089e-016 -29.9204 -7.80724 -9.68743 1.4015 3.97628 -1.33794 75.5062 -44.8116 22.3405 2.94553 3.55272e-015 8.88179e-015 -14.2955 -9.64327e-007 8.24739e-007 2.52656 -1.90735e-006 -7.6294e-006 6.89117e-007 4.9015e-006 -7.05721e-007 2.0973 6.9313 0.02781 57.1192 -9.32699e-006 1.53278e-005 3.0714 7.6294e-006 -9.30367e-014 -61.3031 4.45162e-008 -9.30601e-008 3.37999 -1.90735e-006 2.38419e-007 -6.89702e-007 -2.00488e-007 -1.33564e-007 -2.30895 1.81405 1.44948 -102.192 4.88333 -179.746 9.47902 -3.8147e-006 9.53675e-007 -74.3171 2.14921e-006 9.49818e-006 8.42617 -2.27374e-013 2.86102e-006 -79.1965 1.38801 -5.11838 1.4015 3.97627 1.33796 74.6348 45.0648 -21.719 2.94553 3.8147e-006 3.8147e-006 -16.3122 0.0114638 -0.0391642 2.52656 -4.51195e-013 -3.8147e-006 -179.96 -5.93514e-005 1.66103e-005 2.0973 6.93129 -0.0277838 46.1973 8.492e-006 8.75134e-006 3.0714 1.14441e-005 -5.93303e-013 -72.3334 -1.01356e-005 9.98322e-006 3.38 1.90735e-006 -5.32907e-015 179.96 -5.10848e-005 -3.068e-005 6.17171 -0.00487518 -0.000144839 34.6553 -9.16462 17.1682 6.15899 -2.02444 -2.78435 -178.019 9.66756 77.6449 3.43915 0 1.24345e-014 -136.307 28.8174 69.0649 10.2529 -7.62939e-006 3.8147e-006 -24.7144 1.71843 -0.114032 16.2051 1.90735e-006 3.8147e-006 29.0802 1.58039 16.6897 2.25392 2.19925 0.192032 102.435 4.57315 5.84293 2.17805 -1.99629 -0.219303 -71.0543 -0.181546 3.69121 3.30715 1.42804 0.1739 22.0873 1.21378 12.5607 3.93641 -0.769818 0.580934 -9.22265 11.6421 12.9014 6.15898 -2.02445 2.78458 1.30277 6.69956 -102.168 3.43915 -3.8147e-006 1.03917e-012 126.74 -67.6351 83.8266 10.2529 3.55271e-015 1.90735e-006 44.2257 -7.29335 4.08225 16.2051 -3.8147e-006 1.90735e-006 -10.8447 -17.6854 14.7266 3.30715 -1.42802 0.173889 -40.986 -3.31008 20.1486 2.25391 -2.19925 0.19203 -100.122 4.01288 7.88018 2.17805 1.99629 -0.219301 71.1548 0.159428 -28.2855 3.93641 0.76983 0.580938 10.275 -17.7213 22.1402 7.02382 -0.812376 2.98742e-009 10.998 -9.46468e-007 1.05888e-005 1.54247 3.8147e-006 4.76837e-007 46.6878 -12.1493 -17.4964 2.10596 -0.356756 0.0332333 -89.5427 -0.166629 -179.32 3.42081 -0.773968 -2.25959 135.166 0.56297 176.624 3.42081 -0.773978 2.25975 -45.0611 2.34353 -12.296 6.74791 -1.90735e-006 -5.96047e-008 -2.94819e-006 1.45355e-008 -2.85232e-008 
